<svg id="earth-vector" xmlns="http://www.w3.org/2000/svg" viewBox="0 0 126.43 126.43"><defs><style>.cls-1,.cls-2,.cls-3{fill:none;stroke:#000;stroke-miterlimit:10;}.cls-1{stroke-width:4px;}.cls-2{stroke-width:3px;}.cls-3{stroke-width:2px;}</style></defs><title>geology</title><circle class="cls-1" cx="65.24" cy="66.37" r="61.21" transform="translate(-28.8 77.15) rotate(-54.11)"/><path class="cls-2" d="M33.94,109.62a51.81,51.81,0,1,1,60.75-84" transform="translate(-2.02 -3.16)"/><path class="cls-2" d="M47.12,91.41A31.94,31.94,0,0,1,84.56,39.66" transform="translate(-2.02 -3.16)"/><line class="cls-1" x1="27.33" y1="112.8" x2="99.1" y2="13.63"/><path class="cls-3" d="M118,35.35c-.61,29.75-7.1,39.58-13.84,42.24-6.28,2.48-12.82-1.24-15.93,2.55-4.82,5.89,8,18.47,4.11,27.11-4.09,9.13-28.19-.76-33.5,7.94-2.32,3.79-3.43,7.16-.83,12" transform="translate(-2.02 -3.16)"/><path class="cls-3" d="M70.58,59.44c14.82,7.91,17.59,3.48,18.33.8.4-1.44-.21-3.46,1.28-5.11,2-2.18,5.15-1,5.89-2.58s-1.38-5-4.21-5.86-5.05,1.59-7.16.45c-1.43-.77-1.92-2.69-2.09-4.33" transform="translate(-2.02 -3.16)"/></svg>