<svg id="earth-vector" xmlns="http://www.w3.org/2000/svg" viewBox="0 0 126.43 126.43"><defs><style>.cls-1{fill:#a4cc48;}.cls-2{fill:#4aaecc;}.cls-3{fill:#443f38;}.cls-4{fill:#dd9f31;}.cls-5{fill:#d34113;}.cls-6,.cls-7,.cls-8{fill:none;stroke:#000;stroke-miterlimit:10;}.cls-6{stroke-width:4px;}.cls-7{stroke-width:3px;}.cls-8{stroke-width:2px;}</style></defs><title>geology-color</title><path class="cls-1" d="M59.37,128s32.88,1,50.09-19.33,16.89-45.8,16.89-45.8l-3.42-17-3.55-10.83-3.69,25.49S112,76.71,100.11,77.46s-14,3.92-12.56,8.8,5,13.35,5,13.35,2.25,12.76-13.07,12.51-18.37.92-18.37.92S52.31,123.33,59.37,128Z" transform="translate(-2.02 -3.16)"/><path class="cls-2" d="M57.62,126.36s-3.29-16.19,12.87-15.08,21.66-2.76,22.26-4.34.87-6.41-1.87-14-6.69-14.1,3.4-14.43,17.49-.82,21.4-17.9,2.49-26.36,2.49-26.36l-6.45-7.69-6.51-6.78-4.09-3L63.78,67.27,29.35,116S54.57,130.57,57.62,126.36Z" transform="translate(-2.02 -3.16)"/><path class="cls-3" d="M29.35,116S0,93.22,4.31,60.43s21.77-45.11,35-49.53S74.42,3.74,84.78,8.35a136.18,136.18,0,0,1,16.34,8.44Z" transform="translate(-2.02 -3.16)"/><path class="cls-1" d="M70.58,59.44S80.95,65,85.14,63.79s3.36-3.92,4.16-7,4.83-3.28,4.83-3.28l2.09-1.85s.41-4.92-2.7-5.05-6.33.55-7.44.14A15,15,0,0,1,83,44.62l-.9-1Z" transform="translate(-2.02 -3.16)"/><path class="cls-4" d="M33.94,109.62S6.31,88.69,13.4,61.11s25-38.23,25-38.23,18.88-11.55,32.08-6.68,25.37,7,24.22,9.48-10.16,14.23-10.13,14S77,35.82,77,35.82s-16.8-5.43-26,1.43S31.73,55.6,33.39,66.19a48.54,48.54,0,0,0,9.24,22c2.93,3.73,4.53,3,4.53,3Z" transform="translate(-2.02 -3.16)"/><path class="cls-5" d="M47.16,91.17l37.41-51.5s-18.48-9.47-27.4-4.85S37,42.89,35.38,55.56s-3.09,15,3.61,27.05S47.16,91.17,47.16,91.17Z" transform="translate(-2.02 -3.16)"/><circle class="cls-6" cx="65.24" cy="66.37" r="61.21" transform="translate(-28.8 77.15) rotate(-54.11)"/><path class="cls-7" d="M33.94,109.62a51.81,51.81,0,1,1,60.75-84" transform="translate(-2.02 -3.16)"/><path class="cls-7" d="M47.12,91.41A31.94,31.94,0,0,1,84.56,39.66" transform="translate(-2.02 -3.16)"/><line class="cls-6" x1="27.33" y1="112.8" x2="99.1" y2="13.63"/><path class="cls-8" d="M118,35.35c-.61,29.75-7.1,39.58-13.84,42.24-6.28,2.48-12.82-1.24-15.93,2.55-4.82,5.89,8,18.47,4.11,27.11-4.09,9.13-28.19-.76-33.5,7.94-2.32,3.79-3.43,7.16-.83,12" transform="translate(-2.02 -3.16)"/><path class="cls-8" d="M70.58,59.44c14.82,7.91,17.59,3.48,18.33.8.4-1.44-.21-3.46,1.28-5.11,2-2.18,5.15-1,5.89-2.58s-1.38-5-4.21-5.86-5.05,1.59-7.16.45c-1.43-.77-1.92-2.69-2.09-4.33" transform="translate(-2.02 -3.16)"/></svg>