<svg xmlns="http://www.w3.org/2000/svg" viewBox="0 0 123 108.5"><defs><style>.cls-1,.cls-2,.cls-3,.cls-4{fill:none;stroke:#000;stroke-miterlimit:10;}.cls-1{stroke-width:2px;}.cls-2{stroke-width:4px;}.cls-3{stroke-width:3px;}</style></defs><title>computer-bw</title><g id="Layer_3" data-name="Layer 3"><path d="M258,280.5h39c2.57,0,2.58-4,0-4H258c-2.57,0-2.58,4,0,4Z" transform="translate(-217 -172)"/></g><g id="Layer_4" data-name="Layer 4"><line class="cls-1" x1="51" y1="89" x2="51" y2="107"/><line class="cls-1" x1="71" y1="89" x2="71" y2="107"/></g><g id="Layer_7" data-name="Layer 7"><path class="cls-1" d="M220,249H338s-2.05,12-9.23,12H227.18S220,255.67,220,249Z" transform="translate(-217 -172)"/><rect class="cls-2" x="2" y="2" width="119" height="87" rx="12" ry="12"/></g><g id="Layer_5" data-name="Layer 5"><line class="cls-3" x1="27" y1="28" x2="47.43" y2="28"/><line class="cls-3" x1="50.57" y1="28" x2="58.43" y2="28"/><line class="cls-3" x1="61.57" y1="28" x2="71" y2="28"/><line class="cls-3" x1="27" y1="33.29" x2="41.14" y2="33.29"/><line class="cls-3" x1="44.29" y1="33.29" x2="80.43" y2="33.29"/><line class="cls-3" x1="27" y1="39" x2="63.14" y2="39"/><line class="cls-3" x1="66" y1="39" x2="94.29" y2="39"/><line class="cls-3" x1="27" y1="44.29" x2="44.29" y2="44.29"/><line class="cls-3" x1="47.43" y1="44.29" x2="69.43" y2="44.29"/><line class="cls-3" x1="27" y1="50" x2="41.14" y2="50"/><line class="cls-3" x1="43.57" y1="50" x2="51.43" y2="50"/><line class="cls-3" x1="53.86" y1="50" x2="71.14" y2="50"/></g><g id="Layer_8" data-name="Layer 8"><circle class="cls-4" cx="61.25" cy="82.25" r="1.39"/><circle class="cls-4" cx="61.25" cy="82.25" r="3.25"/></g></svg>