<svg version="1" xmlns="http://www.w3.org/2000/svg" width="1312" height="1312" viewBox="0 0 984.000000 984.000000"><path d="M92.5 59.7c-8.5 1.5-23.4 6.3-30 9.5-26.2 13.2-47.2 37.1-56.3 64.3C-.4 152.9 0 134 0 422s-.4 269.1 6.2 288.5c11 32.9 38 59.5 70.8 70 17.6 5.6 14 5.5 174.8 5.5H400v108h-37.7c-34 0-38.2.2-41.3 1.8-5.3 2.6-8 7.4-8 14.2 0 6.8 2.7 11.6 8 14.2 3.3 1.7 13.1 1.8 163 1.8s159.7-.1 163-1.8c5.3-2.6 8-7.4 8-14.2 0-6.8-2.7-11.6-8-14.2-3.1-1.6-7.1-1.8-37.2-1.8H576V786h152.3c165 0 161.1.1 178.7-5.5 32.8-10.5 59.8-37.1 70.8-70 6.6-19.4 6.2-.5 6.2-288.5s.4-269.1-6.2-288.5c-7.6-22.9-23.8-43.8-43.8-56.7-10.9-7.1-14.5-8.9-25.5-12.6-19.6-6.7 13.2-6.2-417.5-6.1-335.1.1-391.6.3-398.5 1.6zM467 282v12h-62v-24h62v12zm101 0v12l-37.7-.2-37.8-.3-.3-10.4c-.1-5.8 0-11.1.2-11.8.4-1 7.9-1.3 38.1-1.3H568v12zm-239 42v12H216v-24h113v12zm314 0v12l-144.2-.2-144.3-.3-.3-10.4c-.1-5.8 0-11.1.2-11.8.4-1.1 26.3-1.3 144.6-1.3h144v12zm-138 46v12H216v-24h289v12zm50 42.5V424H380v-23h175v11.5zM411 458v12h-62v-24h62v12zm158 0v12H431v-24h138v12zm382 226.3c0 7.9-7.8 27.8-14.4 36.7-11 14.8-28 26.1-46.2 30.7-6.6 1.7-26.3 1.8-398.4 1.8-372.1 0-391.8-.1-398.4-1.8-14.5-3.7-27.9-11.3-37.9-21.4-6.8-6.9-8.6-9.4-13.4-18.8-4.2-8.2-7.9-18.6-8.9-25l-.6-4.5H951v2.3zM559 840v53H417V787h142v53z"/><path d="M479.1 688.2c-15.1 5.8-22.7 23-17 38.4 2.6 7 7.2 12.1 14.1 16 4.7 2.6 6.3 2.9 13.8 2.9 7.5 0 9.1-.3 13.8-2.9 6-3.3 10.1-7.6 13.4-13.9 1.9-3.4 2.3-5.8 2.3-12.7 0-7.3-.4-9.2-2.7-13.6-7.1-13.6-23.3-19.7-37.7-14.2zm19.6 7.9c4.7 1.5 10.9 9 12.3 14.9 1.8 7.7-.1 14.2-5.9 20-9.3 9.2-20.8 9.2-30.2 0-6.2-6-8-12.8-5.6-21.1 3.7-12.5 15.7-18.1 29.4-13.8z"/><path d="M482.3 703.1c-13.1 8.4-7.3 27.9 8.2 27.9 7.7 0 14.5-7.1 14.5-15 0-11.5-13.2-19-22.7-12.9zm12.2 8.4c1.4 1.3 2.5 3.3 2.5 4.5 0 1.1-1.1 3.2-2.5 4.5-1.3 1.4-3.3 2.5-4.5 2.5-1.1 0-3.2-1.1-4.5-2.5-1.4-1.3-2.5-3.4-2.5-4.5 0-1.2 1.1-3.2 2.5-4.5 3.1-3.2 5.9-3.2 9 0z"/></svg>