<?xml version="1.0" encoding="iso-8859-1"?>
<!-- Generator: Adobe Illustrator 19.0.0, SVG Export Plug-In . SVG Version: 6.00 Build 0)  -->
<svg xmlns="http://www.w3.org/2000/svg" xmlns:xlink="http://www.w3.org/1999/xlink" version="1.1" id="Layer_1" x="0px" y="0px" viewBox="0 0 512 512" style="enable-background:new 0 0 512 512;" xml:space="preserve" width="512px" height="512px">
<g>
	<g>
		<path d="M501.344,32H10.656C4.781,32,0,36.773,0,42.664V384c0,5.891,4.781,10.664,10.656,10.664h177.031l-12.766,64h-4.266    c-5.875,0-10.656,4.781-10.656,10.672S164.781,480,170.656,480h170.688c5.875,0,10.656-4.773,10.656-10.664    s-4.781-10.672-10.656-10.672h-4.281l-12.781-64h177.062c5.875,0,10.656-4.773,10.656-10.664V42.664    C512,36.773,507.219,32,501.344,32z M196.688,458.665L196.688,458.665l12.75-63.915l93.094-0.023l12.781,63.938H196.688z     M490.656,373.336H256H21.344V352H256h234.656V373.336z M490.656,330.664H21.344V53.336h469.312V330.664z" fill="#212529"/>
	</g>
</g>
<g>
	<g>
		<path d="M256,352c-5.89,0-10.656,4.773-10.656,10.664s4.766,10.672,10.656,10.672s10.656-4.781,10.656-10.672S261.89,352,256,352z    " fill="#212529"/>
	</g>
</g>
<g>
	<g>
		<path d="M373.344,74.664h-320c-5.906,0-10.688,4.781-10.688,10.672S47.438,96,53.344,96h319.969c0,0,0.016,0,0.031,0    C379.219,96,384,91.227,384,85.336S379.219,74.664,373.344,74.664z" fill="#212529"/>
	</g>
</g>
<g>
	<g>
		<path d="M224.001,117.336H53.344c-5.906,0-10.688,4.773-10.688,10.664s4.782,10.664,10.688,10.664h170.641    c0.016,0,0.016,0,0.016,0c5.891,0,10.656-4.773,10.656-10.664S229.891,117.336,224.001,117.336z" fill="#212529"/>
	</g>
</g>
<g>
	<g>
		<path d="M288,160H53.344c-5.906,0-10.688,4.773-10.688,10.664c0,5.898,4.782,10.672,10.688,10.672h234.641    c0.016,0,0.016,0,0.016,0c5.891,0,10.656-4.773,10.656-10.664S293.891,160,288,160z" fill="#212529"/>
	</g>
</g>
<g>
	<g>
		<path d="M202.656,202.672l-149.312-0.008c-5.906,0-10.688,4.781-10.688,10.672S47.438,224,53.344,224h149.312    c5.906,0,10.688-4.773,10.688-10.664S208.563,202.672,202.656,202.672z" fill="#212529"/>
	</g>
</g>
<g>
	<g>
		<path d="M330.656,245.336H53.344c-5.906,0-10.688,4.773-10.688,10.664s4.782,10.664,10.688,10.664h277.312v0.008    c5.906,0,10.688-4.781,10.688-10.672S336.563,245.336,330.656,245.336z" fill="#212529"/>
	</g>
</g>
<g>
	<g>
		<path d="M138.656,288H53.344c-5.906,0-10.688,4.773-10.688,10.664c0,5.898,4.782,10.672,10.688,10.672h85.312    c5.906,0,10.688-4.773,10.688-10.664S144.562,288,138.656,288z" fill="#212529"/>
	</g>
</g>
<g>
</g>
<g>
</g>
<g>
</g>
<g>
</g>
<g>
</g>
<g>
</g>
<g>
</g>
<g>
</g>
<g>
</g>
<g>
</g>
<g>
</g>
<g>
</g>
<g>
</g>
<g>
</g>
<g>
</g>
</svg>
